<svg xmlns="http://www.w3.org/2000/svg" width="951" height="636" preserveAspectRatio="xMidYMid meet" style=""><rect id="backgroundrect" width="100%" height="100%" x="0" y="0" fill="none" stroke="none"/>

 <g style="">
  <title>background</title>
  <rect fill="none" id="canvas_background" height="402" width="582" y="-1" x="-1"/>
 </g>
 <g style="" class="currentLayer">
  <title>Layer 1</title>
  <g id="svg_1" fill="#ffffff" transform="translate(0,636) scale(0.10000000149011612,-0.10000000149011612) " class="selected" fill-opacity="1">
   <path fill="#ffffff" id="svg_2" d="m4522,4286c-102,-26 -214,-90 -280,-161c-68,-72 -140,-204 -149,-273c-4,-32 -13,-48 -35,-63c-63,-45 -77,-131 -35,-209c14,-25 28,-62 31,-82c8,-44 55,-88 95,-88c41,0 79,35 92,83c6,23 23,64 36,91c37,70 29,133 -21,185l-36,37l16,54c22,77 66,150 118,198c55,51 155,102 210,108c22,2 53,7 67,10c45,10 154,-13 225,-47c151,-71 245,-224 245,-396c1,-263 -179,-452 -455,-478c-75,-7 -98,-17 -75,-31c17,-10 201,-13 219,-3c8,5 39,18 68,29c112,43 212,129 271,235c49,86 65,151 66,255c0,157 -43,265 -151,380c-108,114 -224,168 -379,175c-57,3 -110,0 -143,-9zm-451,-633c13,-16 12,-17 -3,-4c-17,13 -22,21 -14,21c2,0 10,-8 17,-17zm179,13c0,-2 -8,-10 -17,-17c-16,-13 -17,-12 -4,4c13,16 21,21 21,13z" fill-opacity="1"/>
   <path fill="#ffffff" id="svg_3" d="m4694,4061c-46,-21 -100,-82 -109,-123c-4,-15 -10,-26 -15,-23c-17,11 -31,-22 -20,-50c10,-27 2,-44 -22,-45c-5,0 -27,-17 -50,-37c-98,-89 -105,-217 -18,-316c99,-112 274,-101 356,23c28,42 58,147 44,155c-4,3 -11,20 -14,38c-8,42 -67,112 -115,136c-20,10 -55,22 -79,26c-47,8 -48,20 -1,30c44,10 114,81 129,132c22,74 -5,91 -86,54z" fill-opacity="1"/>
   <path fill="#ffffff" id="svg_4" d="m4866,2991l-29,-6l0,-185l0,-185l44,0l44,0l-3,63l-3,62l43,0c32,0 49,6 70,27c25,24 28,33 28,93c0,61 -2,68 -32,97c-26,25 -43,32 -83,35c-27,2 -63,2 -79,-1zm104,-131c0,-36 -2,-40 -25,-40c-22,0 -25,4 -25,40c0,36 3,40 25,40c23,0 25,-4 25,-40z" fill-opacity="1"/>
   <path fill="#ffffff" id="svg_5" d="m2834,2976c-3,-8 -4,-29 -2,-48c3,-31 5,-33 41,-33l37,0l0,-102c0,-57 -4,-105 -10,-108c-14,-9 -13,-48 2,-63c16,-16 75,-15 85,1c4,6 6,71 4,142l-3,130l33,0c34,0 34,1 34,45l0,45l-108,3c-86,2 -108,0 -113,-12z" fill-opacity="1"/>
   <path fill="#ffffff" id="svg_6" d="m3103,2974c-3,-9 -1,-39 5,-67c6,-29 19,-101 28,-162c9,-60 21,-116 26,-122c13,-16 70,-17 86,-1c7,7 12,26 13,43c1,29 1,28 13,-10c11,-37 15,-40 50,-43c41,-4 58,6 62,35c1,10 5,40 8,66c3,26 13,92 22,147c20,118 16,132 -28,128c-31,-3 -33,-6 -41,-53c-15,-87 -23,-95 -31,-30c-8,67 -19,85 -52,85c-30,0 -36,-12 -50,-95l-11,-70l-7,65c-5,36 -12,73 -17,83c-12,22 -67,23 -76,1z" fill-opacity="1"/>
   <path fill="#ffffff" id="svg_7" d="m3479,2986c0,-3 -1,-88 -2,-188l0,-183l43,0l44,0l0,185l0,185l-42,3c-23,2 -42,1 -43,-2z" fill-opacity="1"/>
   <path fill="#ffffff" id="svg_8" d="m3652,2957c-28,-29 -32,-40 -32,-87c0,-45 4,-59 27,-82c21,-22 36,-28 70,-28c41,0 43,-1 43,-30c0,-25 -4,-30 -24,-30c-16,0 -26,7 -29,21c-5,17 -12,20 -44,17c-34,-3 -38,-6 -41,-32c-3,-21 5,-37 29,-62c28,-29 40,-34 80,-34c36,0 55,6 78,26c28,24 31,31 31,87c0,52 -4,65 -27,89c-20,21 -36,28 -65,28c-36,0 -38,2 -38,30c0,25 4,30 24,30c18,0 25,-6 28,-22c2,-19 9,-23 38,-23c34,0 35,1 38,41c3,36 -1,45 -28,68c-24,20 -42,26 -79,26c-40,0 -52,-5 -79,-33z" fill-opacity="1"/>
   <path fill="#ffffff" id="svg_9" d="m3894,2976c-3,-8 -4,-29 -2,-48c3,-30 6,-33 37,-33l33,0l-4,-133c-5,-147 -2,-156 54,-150l33,3l-4,140l-3,140l38,0l39,0l0,45l0,45l-108,3c-86,2 -108,0 -113,-12z" fill-opacity="1"/>
   <path fill="#ffffff" id="svg_10" d="m4180,2986c-3,-2 -5,-87 -4,-188l1,-183l94,0l94,0l0,45l0,45l-52,-2c-52,-2 -53,-2 -53,27c0,26 3,29 38,32c35,3 37,5 37,38c0,33 -2,35 -37,38c-35,3 -38,6 -38,32c0,29 1,29 53,27l52,-2l0,45l0,45l-90,3c-50,1 -93,1 -95,-2z" fill-opacity="1"/>
   <path fill="#ffffff" id="svg_11" d="m4429,2985c0,-3 -1,-87 -2,-187l0,-183l83,-3c79,-3 84,-1 112,24l28,28l0,136c0,136 0,136 -28,163c-26,25 -35,27 -110,27c-45,0 -82,-2 -83,-5zm141,-185l0,-100l-30,0l-30,0l0,100l0,100l30,0l30,0l0,-100z" fill-opacity="1"/>
   <path fill="#ffffff" id="svg_12" d="m5112,2978c-15,-15 -16,-54 -2,-63c12,-7 11,-223 -1,-231c-14,-8 -11,-50 4,-63c19,-15 164,-16 182,-1c19,16 19,64 0,80c-9,8 -28,10 -55,5c-39,-7 -40,-6 -40,24c0,27 3,30 38,33c35,3 37,5 37,38c0,33 -2,35 -37,38c-35,3 -38,6 -38,33c0,30 1,31 40,24c27,-5 46,-3 55,5c18,15 20,61 3,78c-16,16 -170,16 -186,0z" fill-opacity="1"/>
   <path fill="#ffffff" id="svg_13" d="m5387,2962c-27,-28 -27,-30 -27,-162c0,-132 0,-134 27,-162c23,-24 34,-28 83,-28c49,0 60,4 83,28c27,28 27,30 27,162c0,132 0,134 -27,162c-23,24 -34,28 -83,28c-49,0 -60,-4 -83,-28zm113,-162l0,-100l-30,0l-30,0l0,100l0,100l30,0l30,0l0,-100z" fill-opacity="1"/>
   <path fill="#ffffff" id="svg_14" d="m5639,2985c0,-3 -1,-87 -2,-187l0,-183l44,0l44,0l-2,63l-3,62l43,0c34,0 49,6 70,28c24,25 27,36 27,93c0,60 -2,67 -33,97c-31,30 -37,32 -110,32c-42,0 -77,-2 -78,-5zm141,-125c0,-38 -2,-40 -30,-40c-28,0 -30,2 -30,40c0,38 2,40 30,40c28,0 30,-2 30,-40z" fill-opacity="1"/>
   <path fill="#ffffff" id="svg_15" d="m5920,2986c-3,-2 -5,-87 -4,-188l1,-183l89,0l89,0l0,45l0,45l-49,-2l-48,-1l3,141l4,142l-40,3c-23,2 -43,1 -45,-2z" fill-opacity="1"/>
   <path fill="#ffffff" id="svg_16" d="m6160,2986c-3,-2 -5,-87 -4,-188l1,-183l94,0l94,0l0,45l0,45l-52,-2c-52,-2 -53,-2 -53,27c0,26 3,29 38,32c35,3 37,5 37,38c0,33 -2,35 -37,38c-35,3 -38,6 -38,32c0,29 1,29 53,27l52,-2l0,45l0,45l-90,3c-50,1 -93,1 -95,-2z" fill-opacity="1"/>
   <path fill="#ffffff" id="svg_17" d="m3414,2381c-3,-3 -13,-6 -22,-6c-12,0 -18,-10 -20,-37c-2,-29 -8,-38 -22,-38c-14,0 -20,9 -22,38l-3,37l-69,0c-48,0 -71,-4 -74,-13c-2,-7 5,-16 17,-19c18,-5 21,-14 23,-87c2,-64 6,-81 18,-81c12,0 16,17 18,83c2,63 6,82 17,82c11,0 15,-19 17,-82c2,-66 6,-83 18,-83c10,0 16,13 18,43c3,33 7,42 22,42c15,0 19,-9 22,-42l3,-43l75,0c68,0 75,2 75,20c0,16 -8,21 -37,23c-29,2 -38,8 -38,22c0,14 8,20 33,22c20,2 32,8 32,18c0,10 -12,16 -32,18c-24,2 -33,8 -33,22c0,14 9,20 33,22c52,5 41,32 -16,38c-26,4 -50,4 -53,1z" fill-opacity="1"/>
   <path fill="#ffffff" id="svg_18" d="m3872,2378c-16,-16 -17,-194 0,-204c6,-4 17,0 23,10c11,14 14,15 25,1c30,-36 90,-4 90,48c0,18 -11,35 -35,54c-35,28 -43,47 -25,58c6,3 14,-5 20,-19c11,-31 30,-34 37,-6c3,11 11,20 19,20c10,0 14,-22 16,-82c2,-66 6,-83 18,-83c12,0 16,17 18,83c2,64 6,82 17,82c12,0 15,-16 15,-73c0,-43 5,-78 12,-85c15,-15 84,-16 93,-2c5,8 11,8 19,1c18,-15 26,-3 26,36c0,41 14,43 30,3c16,-39 37,-57 51,-43c8,8 6,21 -6,43c-13,26 -15,38 -6,57c16,35 13,68 -7,86c-14,13 -47,16 -210,15c-112,0 -194,-4 -198,-10c-3,-5 -11,-2 -18,7c-9,12 -14,13 -24,3zm348,-56c0,-26 -2,-28 -35,-24c-48,6 -50,39 -2,45c17,2 33,5 35,5c1,1 2,-11 2,-26zm80,-7c0,-18 -5,-25 -20,-25c-15,0 -20,7 -20,25c0,18 5,25 20,25c15,0 20,-7 20,-25zm-330,-86c0,-27 -28,-24 -32,4c-2,14 -9,21 -21,21c-10,-1 -17,5 -17,17c0,17 2,17 35,-2c20,-12 35,-29 35,-40zm250,13c0,-26 -2,-28 -35,-24c-48,6 -50,39 -2,45c17,2 33,5 35,5c1,1 2,-11 2,-26z" fill-opacity="1"/>
   <path fill="#ffffff" id="svg_19" d="m4529,2369c-19,-19 -22,-19 -38,-5c-24,21 -64,20 -84,-2c-26,-28 -24,-145 3,-172c25,-25 54,-26 79,-1c19,19 20,19 37,0c21,-23 61,-25 86,-2c17,15 19,15 36,0c25,-22 58,-21 81,2c19,19 19,19 24,0c6,-23 53,-26 84,-4c18,13 22,13 33,0c20,-24 30,-7 30,48l0,52l21,-44c27,-61 39,-74 54,-61c9,8 15,8 20,0c10,-17 93,-12 103,6c8,14 10,14 21,0c18,-22 47,-20 70,3c19,19 20,19 37,0c35,-39 94,-11 94,44c0,18 -11,35 -35,54c-35,28 -43,47 -25,58c6,3 14,-5 20,-19c5,-14 14,-26 20,-26c17,0 23,30 12,56c-14,28 -65,34 -92,9c-15,-14 -18,-14 -30,0c-14,17 -66,20 -75,5c-5,-8 -11,-8 -20,0c-8,7 -40,10 -77,8l-63,-3l-3,-50l-4,-50l-23,53c-24,52 -46,66 -63,36c-8,-14 -10,-14 -21,0c-8,9 -29,16 -48,16c-27,0 -36,-5 -40,-20l-6,-21l-14,21c-17,24 -80,28 -89,5c-5,-13 -10,-12 -31,5c-33,26 -58,25 -84,-1zm-59,-45c7,-17 15,-24 25,-20c8,3 15,0 15,-7c0,-7 -15,-12 -40,-12c-36,0 -40,2 -40,26c0,46 25,54 40,13zm235,-45c0,-53 -3,-64 -17,-67c-16,-3 -18,5 -18,61c0,35 3,67 7,71c18,17 28,-6 28,-65zm465,45c7,-17 15,-24 25,-20c8,3 15,1 15,-5c0,-5 16,-19 35,-30c20,-12 35,-29 35,-40c0,-26 -23,-24 -35,4c-6,12 -14,21 -18,19c-4,-2 -21,7 -36,20c-16,13 -36,28 -46,34c-12,6 -16,16 -12,27c9,25 26,21 37,-9zm-582,-46c-2,-48 -7,-63 -18,-63c-11,0 -16,13 -18,49c-4,58 2,76 23,76c13,0 15,-11 13,-62zm238,36c8,-33 -6,-96 -23,-102c-10,-3 -13,14 -13,62c0,52 3,66 15,66c8,0 18,-12 21,-26zm264,7c0,-19 52,-71 71,-71c5,0 9,-9 9,-20c0,-28 -29,-25 -40,5c-11,30 -30,33 -37,5c-7,-28 -63,-29 -63,-1c0,15 8,21 33,23c20,2 32,8 32,18c0,10 -12,16 -32,18c-25,2 -33,8 -33,23c0,14 7,19 30,19c23,0 30,-5 30,-19zm-620,-93c0,-11 -8,-18 -20,-18c-16,0 -20,7 -20,30c0,28 2,29 20,18c11,-7 20,-21 20,-30z" fill-opacity="1"/>
   <path fill="#ffffff" id="svg_20" d="m5450,2366c-5,-15 -10,-36 -10,-46c0,-36 -18,-29 -24,10c-6,42 -22,58 -38,42c-6,-6 -2,-41 14,-103c27,-110 46,-123 64,-44c11,48 11,49 18,20c4,-16 12,-41 17,-54c16,-38 36,-9 56,82l18,82l5,-88c3,-48 9,-87 15,-87c6,0 11,37 13,84c3,77 4,84 22,79c17,-4 20,-16 22,-87c2,-64 6,-81 18,-81c12,0 16,17 18,83c2,63 6,82 17,82c11,0 15,-19 17,-82c2,-66 6,-83 18,-83c10,0 16,13 18,43c3,33 7,42 22,42c15,0 19,-9 22,-42c2,-30 8,-43 18,-43c12,0 15,18 15,100c0,82 -3,100 -15,100c-10,0 -16,-12 -18,-37c-2,-29 -8,-38 -22,-38c-14,0 -20,9 -22,38l-3,37l-104,0c-112,0 -113,0 -127,-60l-7,-30l-8,29c-4,16 -6,32 -4,36c3,4 -4,15 -15,25c-19,17 -20,17 -30,-9z" fill-opacity="1"/>
   <path fill="#ffffff" id="svg_21" d="m3587,2362c-32,-35 -19,-72 36,-106c28,-17 32,-36 9,-44c-7,-2 -16,8 -22,23c-12,30 -33,29 -38,-3c-5,-32 34,-65 66,-57c15,3 38,7 52,8c24,2 25,4 28,91c3,93 -6,119 -32,97c-10,-8 -16,-9 -21,-1c-10,17 -61,12 -78,-8zm93,-82c0,-5 -16,0 -35,11c-33,20 -43,38 -28,53c7,7 63,-49 63,-64z" fill-opacity="1"/>
   <path fill="#ffffff" id="svg_22" d="m3735,2368c-3,-8 -5,-55 -3,-104c2,-71 6,-89 18,-89c11,0 16,14 18,50l4,50l24,-53c36,-80 49,-65 49,54c0,81 -3,99 -15,99c-10,0 -16,-12 -18,-39l-3,-40l-22,39c-24,42 -44,55 -52,33z" fill-opacity="1"/>
   <path fill="#ffffff" id="svg_23" d="m5845,2368c-9,-24 -1,-188 10,-191c14,-3 19,183 6,196c-7,7 -12,5 -16,-5z" fill-opacity="1"/>
   <path fill="#ffffff" id="svg_24" d="m5887,2373c-9,-8 -9,-188 0,-196c13,-14 33,17 33,52l1,36l22,-45c12,-25 29,-45 37,-45c12,0 15,18 15,100c0,82 -3,100 -15,100c-10,0 -17,-14 -20,-44l-5,-44l-22,47c-22,44 -32,53 -46,39z" fill-opacity="1"/>
  </g>
 </g>
</svg>